<?xml version="1.0" encoding="UTF-8" standalone="no"?>
<!DOCTYPE svg PUBLIC "-//W3C//DTD SVG 1.1//EN"
 "http://www.w3.org/Graphics/SVG/1.1/DTD/svg11.dtd">
<!-- Generated by graphviz version 2.42.3 (20191010.1750)
 -->
<!-- Title: snakemake_dag Pages: 1 -->
<svg width="418pt" height="332pt"
 viewBox="0.00 0.00 417.50 332.00" xmlns="http://www.w3.org/2000/svg" xmlns:xlink="http://www.w3.org/1999/xlink">
<g id="graph0" class="graph" transform="scale(1 1) rotate(0) translate(4 328)">
<title>snakemake_dag</title>
<polygon fill="white" stroke="transparent" points="-4,4 -4,-328 413.5,-328 413.5,4 -4,4"/>
<!-- 0 -->
<g id="node1" class="node">
<title>0</title>
<path fill="none" stroke="#9fd856" stroke-width="2" d="M216,-36C216,-36 186,-36 186,-36 180,-36 174,-30 174,-24 174,-24 174,-12 174,-12 174,-6 180,0 186,0 186,0 216,0 216,0 222,0 228,-6 228,-12 228,-12 228,-24 228,-24 228,-30 222,-36 216,-36"/>
<text text-anchor="middle" x="201" y="-15.5" font-family="sans" font-size="10.00">all</text>
</g>
<!-- 1 -->
<g id="node2" class="node">
<title>1</title>
<path fill="none" stroke="#d8b456" stroke-width="2" d="M81.5,-108C81.5,-108 26.5,-108 26.5,-108 20.5,-108 14.5,-102 14.5,-96 14.5,-96 14.5,-84 14.5,-84 14.5,-78 20.5,-72 26.5,-72 26.5,-72 81.5,-72 81.5,-72 87.5,-72 93.5,-78 93.5,-84 93.5,-84 93.5,-96 93.5,-96 93.5,-102 87.5,-108 81.5,-108"/>
<text text-anchor="middle" x="54" y="-87.5" font-family="sans" font-size="10.00">barcode_blast</text>
</g>
<!-- 1&#45;&gt;0 -->
<g id="edge1" class="edge">
<title>1&#45;&gt;0</title>
<path fill="none" stroke="grey" stroke-width="2" d="M89.96,-71.88C112.57,-61.11 141.66,-47.26 164.39,-36.43"/>
<polygon fill="grey" stroke="grey" stroke-width="2" points="166.18,-39.46 173.71,-32 163.17,-33.14 166.18,-39.46"/>
</g>
<!-- 2 -->
<g id="node3" class="node">
<title>2</title>
<path fill="none" stroke="#56d89a" stroke-width="2" d="M181.5,-180C181.5,-180 126.5,-180 126.5,-180 120.5,-180 114.5,-174 114.5,-168 114.5,-168 114.5,-156 114.5,-156 114.5,-150 120.5,-144 126.5,-144 126.5,-144 181.5,-144 181.5,-144 187.5,-144 193.5,-150 193.5,-156 193.5,-156 193.5,-168 193.5,-168 193.5,-174 187.5,-180 181.5,-180"/>
<text text-anchor="middle" x="154" y="-159.5" font-family="sans" font-size="10.00">fastq_to_fasta</text>
</g>
<!-- 2&#45;&gt;1 -->
<g id="edge5" class="edge">
<title>2&#45;&gt;1</title>
<path fill="none" stroke="grey" stroke-width="2" d="M129.54,-143.88C116.7,-134.89 100.8,-123.76 86.91,-114.03"/>
<polygon fill="grey" stroke="grey" stroke-width="2" points="88.76,-111.06 78.56,-108.19 84.74,-116.79 88.76,-111.06"/>
</g>
<!-- 9 -->
<g id="node10" class="node">
<title>9</title>
<path fill="none" stroke="#d85656" stroke-width="2" d="M281,-108C281,-108 221,-108 221,-108 215,-108 209,-102 209,-96 209,-96 209,-84 209,-84 209,-78 215,-72 221,-72 221,-72 281,-72 281,-72 287,-72 293,-78 293,-84 293,-84 293,-96 293,-96 293,-102 287,-108 281,-108"/>
<text text-anchor="middle" x="251" y="-87.5" font-family="sans" font-size="10.00">macaque_blast</text>
</g>
<!-- 2&#45;&gt;9 -->
<g id="edge12" class="edge">
<title>2&#45;&gt;9</title>
<path fill="none" stroke="grey" stroke-width="2" d="M177.98,-143.7C190.31,-134.8 205.52,-123.82 218.85,-114.2"/>
<polygon fill="grey" stroke="grey" stroke-width="2" points="221.24,-116.79 227.3,-108.1 217.14,-111.12 221.24,-116.79"/>
</g>
<!-- 3 -->
<g id="node4" class="node">
<title>3</title>
<path fill="none" stroke="#56b1d8" stroke-width="2" d="M178,-252C178,-252 130,-252 130,-252 124,-252 118,-246 118,-240 118,-240 118,-228 118,-228 118,-222 124,-216 130,-216 130,-216 178,-216 178,-216 184,-216 190,-222 190,-228 190,-228 190,-240 190,-240 190,-246 184,-252 178,-252"/>
<text text-anchor="middle" x="154" y="-237" font-family="sans" font-size="10.00">unzip_reads</text>
<text text-anchor="middle" x="154" y="-226" font-family="sans" font-size="10.00">reads: reads</text>
</g>
<!-- 3&#45;&gt;2 -->
<g id="edge7" class="edge">
<title>3&#45;&gt;2</title>
<path fill="none" stroke="grey" stroke-width="2" d="M154,-215.7C154,-207.98 154,-198.71 154,-190.11"/>
<polygon fill="grey" stroke="grey" stroke-width="2" points="157.5,-190.1 154,-180.1 150.5,-190.1 157.5,-190.1"/>
</g>
<!-- 4 -->
<g id="node5" class="node">
<title>4</title>
<path fill="none" stroke="#56d8c9" stroke-width="2" d="M84,-180C84,-180 12,-180 12,-180 6,-180 0,-174 0,-168 0,-168 0,-156 0,-156 0,-150 6,-144 12,-144 12,-144 84,-144 84,-144 90,-144 96,-150 96,-156 96,-156 96,-168 96,-168 96,-174 90,-180 84,-180"/>
<text text-anchor="middle" x="48" y="-159.5" font-family="sans" font-size="10.00">barcode_blast_db</text>
</g>
<!-- 4&#45;&gt;1 -->
<g id="edge6" class="edge">
<title>4&#45;&gt;1</title>
<path fill="none" stroke="grey" stroke-width="2" d="M49.48,-143.7C50.14,-135.98 50.94,-126.71 51.68,-118.11"/>
<polygon fill="grey" stroke="grey" stroke-width="2" points="55.17,-118.37 52.53,-108.1 48.19,-117.77 55.17,-118.37"/>
</g>
<!-- 6 -->
<g id="node7" class="node">
<title>6</title>
<path fill="none" stroke="#d8b456" stroke-width="2" d="M178.5,-108C178.5,-108 123.5,-108 123.5,-108 117.5,-108 111.5,-102 111.5,-96 111.5,-96 111.5,-84 111.5,-84 111.5,-78 117.5,-72 123.5,-72 123.5,-72 178.5,-72 178.5,-72 184.5,-72 190.5,-78 190.5,-84 190.5,-84 190.5,-96 190.5,-96 190.5,-102 184.5,-108 178.5,-108"/>
<text text-anchor="middle" x="151" y="-87.5" font-family="sans" font-size="10.00">barcode_blast</text>
</g>
<!-- 4&#45;&gt;6 -->
<g id="edge10" class="edge">
<title>4&#45;&gt;6</title>
<path fill="none" stroke="grey" stroke-width="2" d="M73.2,-143.88C86.41,-134.89 102.79,-123.76 117.11,-114.03"/>
<polygon fill="grey" stroke="grey" stroke-width="2" points="119.4,-116.71 125.71,-108.19 115.47,-110.92 119.4,-116.71"/>
</g>
<!-- 5 -->
<g id="node6" class="node">
<title>5</title>
<path fill="none" stroke="#70d856" stroke-width="2" stroke-dasharray="5,2" d="M68,-252C68,-252 28,-252 28,-252 22,-252 16,-246 16,-240 16,-240 16,-228 16,-228 16,-222 22,-216 28,-216 28,-216 68,-216 68,-216 74,-216 80,-222 80,-228 80,-228 80,-240 80,-240 80,-246 74,-252 68,-252"/>
<text text-anchor="middle" x="48" y="-231.5" font-family="sans" font-size="10.00">cells_fasta</text>
</g>
<!-- 5&#45;&gt;4 -->
<g id="edge8" class="edge">
<title>5&#45;&gt;4</title>
<path fill="none" stroke="grey" stroke-width="2" d="M48,-215.7C48,-207.98 48,-198.71 48,-190.11"/>
<polygon fill="grey" stroke="grey" stroke-width="2" points="51.5,-190.1 48,-180.1 44.5,-190.1 51.5,-190.1"/>
</g>
<!-- 6&#45;&gt;0 -->
<g id="edge2" class="edge">
<title>6&#45;&gt;0</title>
<path fill="none" stroke="grey" stroke-width="2" d="M163.36,-71.7C169.23,-63.47 176.37,-53.48 182.84,-44.42"/>
<polygon fill="grey" stroke="grey" stroke-width="2" points="185.82,-46.28 188.78,-36.1 180.12,-42.21 185.82,-46.28"/>
</g>
<!-- 7 -->
<g id="node8" class="node">
<title>7</title>
<path fill="none" stroke="#56d89a" stroke-width="2" d="M278.5,-180C278.5,-180 223.5,-180 223.5,-180 217.5,-180 211.5,-174 211.5,-168 211.5,-168 211.5,-156 211.5,-156 211.5,-150 217.5,-144 223.5,-144 223.5,-144 278.5,-144 278.5,-144 284.5,-144 290.5,-150 290.5,-156 290.5,-156 290.5,-168 290.5,-168 290.5,-174 284.5,-180 278.5,-180"/>
<text text-anchor="middle" x="251" y="-159.5" font-family="sans" font-size="10.00">fastq_to_fasta</text>
</g>
<!-- 7&#45;&gt;6 -->
<g id="edge9" class="edge">
<title>7&#45;&gt;6</title>
<path fill="none" stroke="grey" stroke-width="2" d="M226.54,-143.88C213.7,-134.89 197.8,-123.76 183.91,-114.03"/>
<polygon fill="grey" stroke="grey" stroke-width="2" points="185.76,-111.06 175.56,-108.19 181.74,-116.79 185.76,-111.06"/>
</g>
<!-- 13 -->
<g id="node14" class="node">
<title>13</title>
<path fill="none" stroke="#d85656" stroke-width="2" d="M383,-108C383,-108 323,-108 323,-108 317,-108 311,-102 311,-96 311,-96 311,-84 311,-84 311,-78 317,-72 323,-72 323,-72 383,-72 383,-72 389,-72 395,-78 395,-84 395,-84 395,-96 395,-96 395,-102 389,-108 383,-108"/>
<text text-anchor="middle" x="353" y="-87.5" font-family="sans" font-size="10.00">macaque_blast</text>
</g>
<!-- 7&#45;&gt;13 -->
<g id="edge16" class="edge">
<title>7&#45;&gt;13</title>
<path fill="none" stroke="grey" stroke-width="2" d="M275.95,-143.88C289.04,-134.89 305.26,-123.76 319.44,-114.03"/>
<polygon fill="grey" stroke="grey" stroke-width="2" points="321.69,-116.73 327.95,-108.19 317.73,-110.96 321.69,-116.73"/>
</g>
<!-- 8 -->
<g id="node9" class="node">
<title>8</title>
<path fill="none" stroke="#56b1d8" stroke-width="2" d="M276,-252C276,-252 226,-252 226,-252 220,-252 214,-246 214,-240 214,-240 214,-228 214,-228 214,-222 220,-216 226,-216 226,-216 276,-216 276,-216 282,-216 288,-222 288,-228 288,-228 288,-240 288,-240 288,-246 282,-252 276,-252"/>
<text text-anchor="middle" x="251" y="-237" font-family="sans" font-size="10.00">unzip_reads</text>
<text text-anchor="middle" x="251" y="-226" font-family="sans" font-size="10.00">reads: mates</text>
</g>
<!-- 8&#45;&gt;7 -->
<g id="edge11" class="edge">
<title>8&#45;&gt;7</title>
<path fill="none" stroke="grey" stroke-width="2" d="M251,-215.7C251,-207.98 251,-198.71 251,-190.11"/>
<polygon fill="grey" stroke="grey" stroke-width="2" points="254.5,-190.1 251,-180.1 247.5,-190.1 254.5,-190.1"/>
</g>
<!-- 9&#45;&gt;0 -->
<g id="edge3" class="edge">
<title>9&#45;&gt;0</title>
<path fill="none" stroke="grey" stroke-width="2" d="M238.64,-71.7C232.77,-63.47 225.63,-53.48 219.16,-44.42"/>
<polygon fill="grey" stroke="grey" stroke-width="2" points="221.88,-42.21 213.22,-36.1 216.18,-46.28 221.88,-42.21"/>
</g>
<!-- 10 -->
<g id="node11" class="node">
<title>10</title>
<path fill="none" stroke="#d88556" stroke-width="2" d="M397.5,-180C397.5,-180 320.5,-180 320.5,-180 314.5,-180 308.5,-174 308.5,-168 308.5,-168 308.5,-156 308.5,-156 308.5,-150 314.5,-144 320.5,-144 320.5,-144 397.5,-144 397.5,-144 403.5,-144 409.5,-150 409.5,-156 409.5,-156 409.5,-168 409.5,-168 409.5,-174 403.5,-180 397.5,-180"/>
<text text-anchor="middle" x="359" y="-159.5" font-family="sans" font-size="10.00">macaque_blast_db</text>
</g>
<!-- 10&#45;&gt;9 -->
<g id="edge13" class="edge">
<title>10&#45;&gt;9</title>
<path fill="none" stroke="grey" stroke-width="2" d="M332.58,-143.88C318.59,-134.81 301.22,-123.55 286.11,-113.76"/>
<polygon fill="grey" stroke="grey" stroke-width="2" points="287.82,-110.69 277.52,-108.19 284.01,-116.57 287.82,-110.69"/>
</g>
<!-- 10&#45;&gt;13 -->
<g id="edge17" class="edge">
<title>10&#45;&gt;13</title>
<path fill="none" stroke="grey" stroke-width="2" d="M357.52,-143.7C356.86,-135.98 356.06,-126.71 355.32,-118.11"/>
<polygon fill="grey" stroke="grey" stroke-width="2" points="358.81,-117.77 354.47,-108.1 351.83,-118.37 358.81,-117.77"/>
</g>
<!-- 11 -->
<g id="node12" class="node">
<title>11</title>
<path fill="none" stroke="#5682d8" stroke-width="2" d="M385,-252C385,-252 333,-252 333,-252 327,-252 321,-246 321,-240 321,-240 321,-228 321,-228 321,-222 327,-216 333,-216 333,-216 385,-216 385,-216 391,-216 397,-222 397,-228 397,-228 397,-240 397,-240 397,-246 391,-252 385,-252"/>
<text text-anchor="middle" x="359" y="-231.5" font-family="sans" font-size="10.00">full_macaque</text>
</g>
<!-- 11&#45;&gt;10 -->
<g id="edge14" class="edge">
<title>11&#45;&gt;10</title>
<path fill="none" stroke="grey" stroke-width="2" d="M359,-215.7C359,-207.98 359,-198.71 359,-190.11"/>
<polygon fill="grey" stroke="grey" stroke-width="2" points="362.5,-190.1 359,-180.1 355.5,-190.1 362.5,-190.1"/>
</g>
<!-- 12 -->
<g id="node13" class="node">
<title>12</title>
<path fill="none" stroke="#56d86b" stroke-width="2" d="M388.5,-324C388.5,-324 329.5,-324 329.5,-324 323.5,-324 317.5,-318 317.5,-312 317.5,-312 317.5,-300 317.5,-300 317.5,-294 323.5,-288 329.5,-288 329.5,-288 388.5,-288 388.5,-288 394.5,-288 400.5,-294 400.5,-300 400.5,-300 400.5,-312 400.5,-312 400.5,-318 394.5,-324 388.5,-324"/>
<text text-anchor="middle" x="359" y="-303.5" font-family="sans" font-size="10.00">ncbi_download</text>
</g>
<!-- 12&#45;&gt;11 -->
<g id="edge15" class="edge">
<title>12&#45;&gt;11</title>
<path fill="none" stroke="grey" stroke-width="2" d="M359,-287.7C359,-279.98 359,-270.71 359,-262.11"/>
<polygon fill="grey" stroke="grey" stroke-width="2" points="362.5,-262.1 359,-252.1 355.5,-262.1 362.5,-262.1"/>
</g>
<!-- 13&#45;&gt;0 -->
<g id="edge4" class="edge">
<title>13&#45;&gt;0</title>
<path fill="none" stroke="grey" stroke-width="2" d="M315.82,-71.88C292.02,-60.92 261.3,-46.77 237.61,-35.86"/>
<polygon fill="grey" stroke="grey" stroke-width="2" points="238.81,-32.56 228.27,-31.56 235.88,-38.92 238.81,-32.56"/>
</g>
</g>
</svg>
